<?xml version="1.0" standalone="no"?>
<!DOCTYPE svg PUBLIC "-//W3C//DTD SVG 20010904//EN"
 "http://www.w3.org/TR/2001/REC-SVG-20010904/DTD/svg10.dtd">
<svg version="1.0" xmlns="http://www.w3.org/2000/svg"
 width="1432.000000pt" height="1432.000000pt" viewBox="0 0 1432.000000 1432.000000"
 preserveAspectRatio="xMidYMid meet">
<metadata>
Created by potrace 1.14, written by Peter Selinger 2001-2017
</metadata>
<g transform="translate(0.000000,1432.000000) scale(0.100000,-0.100000)"
fill="#000000" stroke="none">
<path d="M2400 9763 l0 -4548 132 2 c73 0 843 3 1711 5 1567 3 1577 3 1584 23
4 11 7 22 8 25 2 9 56 175 64 195 19 46 64 189 64 202 0 7 4 13 9 13 5 0 7 4
3 10 -3 5 -1 17 4 27 8 15 38 100 48 138 1 6 14 44 28 85 15 41 28 80 29 85 9
34 47 149 53 158 4 6 8 18 9 27 1 8 12 44 24 80 12 36 23 70 25 75 1 6 5 19 9
30 17 44 19 50 21 60 2 6 28 87 59 180 32 94 58 178 59 188 1 9 5 17 9 17 4 0
8 9 8 20 0 12 7 34 15 50 9 17 14 31 13 32 -3 3 99 320 113 353 9 21 121 363
125 380 1 6 30 93 64 195 34 102 63 191 63 198 0 6 3 12 7 12 4 0 7 6 8 13 1
21 9 47 57 187 25 74 47 140 48 145 2 6 6 16 10 23 5 6 5 17 2 22 -3 6 -1 10
6 10 7 0 10 2 7 5 -3 3 10 49 28 103 19 53 34 105 34 114 0 10 5 18 12 18 6 0
9 3 5 6 -3 3 3 29 13 57 10 29 42 124 70 212 29 88 61 186 72 218 20 54 33 72
36 45 0 -7 3 -20 5 -28 2 -8 7 -28 12 -45 4 -16 10 -34 14 -40 3 -5 6 -14 7
-20 1 -5 12 -36 23 -67 11 -32 17 -58 14 -58 -3 0 -1 -6 4 -12 6 -7 18 -38 27
-68 9 -30 20 -62 23 -70 3 -8 7 -19 8 -25 5 -20 87 -270 95 -290 8 -19 58
-168 63 -190 6 -22 189 -582 200 -610 7 -16 12 -32 13 -35 4 -25 18 -67 25
-75 4 -6 10 -22 12 -35 2 -14 7 -32 10 -40 4 -8 56 -168 117 -355 61 -187 115
-349 119 -360 5 -11 23 -67 41 -125 18 -58 37 -114 41 -125 5 -11 22 -65 40
-120 17 -55 34 -109 39 -120 4 -11 22 -65 40 -120 17 -55 34 -107 37 -115 3
-8 7 -19 9 -25 1 -5 9 -29 18 -53 8 -23 16 -46 17 -50 2 -9 -7 19 84 -257 42
-126 78 -234 79 -240 4 -19 27 -90 36 -110 5 -11 16 -48 26 -82 l18 -63 170
-1 c94 0 626 -2 1181 -4 1328 -5 2024 -7 2058 -6 24 1 28 5 27 34 0 17 0 59 0
92 0 33 -2 70 -4 82 -3 13 -1 25 4 28 5 3 5 18 0 34 -4 16 -6 32 -3 35 3 3 4
33 4 68 -1 35 -2 106 -2 158 0 52 0 127 0 165 0 39 0 95 0 125 1 125 1 157 -2
188 -2 18 0 35 5 38 5 3 6 10 2 15 -3 5 -5 35 -5 67 0 31 0 82 1 112 0 30 -1
70 -3 88 -2 18 0 35 5 38 5 3 6 10 2 15 -3 5 -5 35 -5 67 0 31 0 82 1 112 0
30 -1 70 -3 88 -2 18 0 35 5 38 5 3 6 10 2 15 -3 5 -5 35 -5 67 0 31 0 82 1
112 0 30 -1 70 -3 88 -2 18 0 35 5 38 5 3 6 9 3 14 -4 7 -7 154 -4 270 0 8 0
40 0 70 0 30 0 62 0 70 0 8 0 44 0 80 -1 36 -1 79 0 95 0 17 -1 65 -2 107 -2
42 0 80 3 83 3 4 2 19 -2 35 -4 16 -6 31 -3 34 3 3 4 33 4 68 -1 35 -2 106 -2
158 0 52 0 127 0 165 0 39 0 95 0 125 1 125 1 157 -2 188 -2 18 0 35 5 38 5 3
6 10 2 15 -3 5 -5 35 -5 67 0 31 0 82 1 112 0 30 -1 70 -3 88 -2 18 0 35 5 38
5 3 6 10 2 15 -3 5 -5 35 -5 67 0 31 0 82 1 112 0 30 -1 70 -3 88 -2 18 0 35
5 38 5 3 6 10 2 15 -3 5 -5 35 -5 67 0 31 0 82 1 112 0 30 -1 70 -3 88 -2 18
0 35 5 38 5 3 6 9 3 14 -4 7 -7 154 -4 270 0 8 0 40 0 70 0 30 0 62 0 70 0 8
0 44 0 80 -1 36 -1 79 0 95 0 17 -1 65 -2 107 -2 42 0 80 3 83 3 4 2 19 -2 35
-4 16 -6 31 -3 34 3 3 4 33 4 68 -1 35 -2 106 -2 158 0 52 0 127 0 165 0 39 0
95 0 125 1 125 1 157 -2 188 -2 18 0 35 5 38 5 3 6 10 2 15 -3 5 -5 35 -5 67
0 31 0 82 1 112 0 30 -1 70 -3 88 -2 18 0 35 5 38 5 3 6 10 2 15 -3 5 -5 35
-5 67 0 31 0 82 1 112 0 30 -1 70 -3 88 -2 18 0 35 5 38 5 3 6 10 2 15 -3 5
-5 35 -5 67 0 31 0 82 1 112 0 30 -1 70 -3 88 -2 18 0 35 5 38 5 3 6 9 3 14
-4 7 -7 154 -4 270 0 8 0 40 0 70 0 30 0 62 0 70 0 8 0 44 0 80 -1 36 -1 79 0
95 0 17 -1 65 -2 107 -2 42 0 80 3 83 3 4 2 19 -2 35 -4 16 -6 31 -3 34 3 3 4
33 4 68 -1 35 -2 106 -2 158 0 52 0 127 0 165 0 39 0 95 0 125 1 125 1 157 -2
188 -2 18 0 35 5 38 5 3 6 10 2 15 -3 5 -5 35 -5 67 0 31 1 84 1 117 0 33 -2
70 -4 82 -3 13 -1 25 3 28 5 2 6 16 3 30 l-4 25 -4759 0 -4759 0 0 -4547z"/>
<path d="M11884 4575 c-13 -13 -28 -25 -32 -25 -4 0 -16 -9 -27 -18 -11 -10
-37 -28 -57 -41 -21 -12 -38 -27 -38 -32 0 -6 -4 -7 -10 -4 -5 3 -10 1 -10 -4
0 -6 -7 -11 -15 -11 -8 0 -15 -3 -15 -7 0 -5 -38 -35 -85 -68 -47 -33 -85 -63
-85 -68 0 -4 -4 -5 -10 -2 -5 3 -10 2 -10 -2 0 -5 -14 -17 -32 -27 -30 -18
-64 -45 -94 -73 -7 -7 -15 -13 -19 -13 -6 0 -74 -48 -85 -60 -3 -3 -21 -17
-40 -30 -19 -13 -37 -27 -40 -30 -3 -3 -18 -14 -35 -24 -16 -11 -34 -23 -40
-28 -5 -5 -48 -37 -95 -71 -47 -34 -86 -65 -88 -69 -2 -5 -8 -8 -14 -8 -5 0
-15 -6 -22 -12 -8 -7 -24 -20 -36 -28 -12 -8 -31 -23 -42 -32 -12 -10 -24 -18
-27 -18 -3 0 -18 -10 -33 -23 -28 -22 -61 -47 -228 -168 -52 -38 -102 -74
-110 -82 -8 -7 -32 -24 -52 -37 -21 -14 -38 -28 -38 -32 0 -5 -5 -8 -11 -8
-11 0 -132 -89 -137 -102 -2 -4 -8 -8 -13 -8 -6 0 -15 -4 -22 -10 -16 -13
-150 -111 -177 -130 -20 -14 -46 -34 -76 -58 -5 -5 -20 -14 -31 -21 -12 -6
-27 -17 -35 -24 -7 -7 -78 -59 -158 -116 -80 -57 -149 -109 -155 -115 -5 -6
-30 -24 -55 -41 -25 -16 -54 -38 -64 -47 -11 -10 -23 -18 -26 -18 -11 0 -46
-34 -45 -45 0 -5 4 -16 9 -23 4 -7 9 -23 11 -35 2 -12 22 -78 44 -147 23 -68
41 -127 41 -131 0 -4 5 -20 12 -36 6 -15 12 -30 13 -33 1 -3 12 -39 25 -80 13
-41 24 -78 24 -82 1 -3 4 -10 9 -14 4 -4 7 -17 7 -29 0 -11 4 -25 9 -30 6 -8
34 -96 36 -115 0 -3 4 -11 8 -17 5 -7 6 -13 2 -13 -3 0 1 -13 10 -30 8 -16 15
-32 15 -35 0 -3 1 -7 1 -10 1 -3 3 -9 4 -15 1 -5 3 -11 5 -12 1 -2 3 -10 5
-18 2 -8 22 -71 45 -140 23 -69 43 -132 45 -140 2 -8 10 -35 19 -60 16 -42 20
-55 30 -98 3 -9 23 -71 45 -137 23 -66 41 -128 41 -137 0 -10 4 -18 10 -18 5
0 9 -3 8 -8 -3 -6 14 -67 30 -112 3 -8 6 -19 7 -25 2 -5 17 -53 35 -105 18
-52 33 -99 35 -105 1 -5 4 -17 7 -25 3 -8 11 -35 18 -60 7 -25 16 -54 20 -65
15 -37 23 -60 26 -72 2 -13 62 -198 71 -223 3 -8 8 -21 10 -27 1 -7 5 -19 6
-25 2 -7 6 -20 9 -28 3 -8 16 -49 30 -90 l23 -75 870 0 870 0 2 45 c2 25 2 72
2 105 0 33 0 87 0 120 1 123 1 161 -2 193 -2 18 0 35 5 38 5 3 6 10 2 15 -3 5
-5 35 -5 67 0 31 0 82 1 112 0 30 -1 70 -3 88 -2 18 0 35 5 38 5 3 6 9 3 14
-4 7 -7 154 -4 270 0 8 0 40 0 70 0 30 0 62 0 70 0 8 0 44 0 80 -1 36 -1 79 0
95 0 17 -1 65 -2 107 -2 42 0 80 3 83 3 4 2 19 -2 35 -4 16 -6 31 -3 34 3 3 4
33 4 68 -1 35 -2 106 -2 158 0 52 0 127 0 165 0 39 0 95 0 125 1 125 1 157 -2
188 -2 18 0 35 5 38 5 3 6 10 2 15 -3 5 -5 35 -5 67 1 106 0 167 0 197 -1 17
0 35 1 40 1 6 1 51 0 100 -1 50 -2 117 -1 150 2 142 1 171 -3 192 -3 13 -1 25
4 28 5 3 5 18 0 34 -4 16 -6 32 -3 35 3 3 4 33 3 68 -1 35 -1 70 -1 78 0 8 0
44 0 80 0 36 0 92 0 125 2 150 1 171 -3 192 -3 13 -1 25 4 28 5 3 5 18 0 34
-4 16 -6 32 -3 35 3 3 4 33 3 68 -3 104 -1 219 5 228 3 5 1 11 -5 15 -6 4 -8
10 -6 14 5 7 7 76 5 166 0 28 0 73 0 100 1 59 -1 85 -6 85 -2 0 -15 -11 -29
-25z"/>
<path d="M2400 2295 l0 -2295 867 2 867 3 33 100 c19 55 35 107 36 115 2 14
31 106 44 140 3 8 7 20 8 25 2 6 13 39 25 75 12 36 24 72 26 80 4 17 33 107
42 130 6 17 5 12 22 70 18 58 16 53 23 70 3 8 31 96 62 195 32 99 60 184 63
190 3 5 7 16 8 25 2 20 53 179 65 205 6 12 12 30 14 40 2 11 4 22 6 25 1 3 3
10 4 15 1 6 5 17 8 25 6 13 49 148 52 160 8 33 19 67 24 75 3 6 6 15 7 20 1 6
12 39 24 75 12 36 23 72 25 80 2 8 22 71 45 140 23 69 43 132 45 140 2 8 4 16
5 18 2 1 3 5 4 10 1 4 10 32 21 62 10 30 20 62 21 70 1 8 25 82 52 163 43 128
48 150 35 160 -8 7 -23 20 -34 30 -10 9 -21 17 -24 17 -2 0 -42 28 -87 62 -46
33 -102 75 -126 92 -53 38 -114 83 -127 94 -5 4 -59 43 -120 87 -60 44 -114
83 -120 88 -5 4 -35 25 -65 47 -30 22 -60 44 -66 49 -6 5 -44 32 -85 61 -41
29 -82 61 -92 71 -10 11 -24 19 -32 19 -8 0 -15 4 -15 9 0 5 -15 18 -33 29
-19 11 -42 27 -53 35 -10 9 -68 52 -129 96 -60 45 -114 84 -120 88 -5 5 -44
33 -85 63 -41 30 -76 58 -78 62 -2 5 -8 8 -13 8 -5 0 -39 23 -74 50 -35 28
-69 50 -74 50 -5 0 -11 3 -13 8 -1 4 -41 35 -88 69 -47 34 -90 66 -95 71 -6 5
-35 26 -65 47 -30 21 -67 48 -82 59 -61 48 -74 58 -100 74 -16 9 -28 20 -28
24 0 4 -4 8 -10 8 -9 0 -35 19 -65 48 -8 6 -17 12 -22 12 -4 0 -20 11 -35 25
-15 14 -30 25 -33 25 -7 0 -129 93 -133 103 -2 4 -8 7 -13 7 -5 0 -39 23 -74
50 -35 28 -67 50 -70 50 -3 0 -5 -1033 -5 -2295z"/>
<path d="M7110 1097 c-25 -17 -51 -37 -58 -44 -7 -7 -17 -13 -20 -13 -4 0 -19
-11 -33 -24 -14 -13 -36 -29 -50 -36 -29 -16 -103 -72 -107 -82 -2 -5 -8 -8
-14 -8 -6 0 -23 -10 -38 -22 -15 -13 -37 -30 -49 -38 -23 -15 -245 -176 -291
-210 -92 -69 -151 -110 -156 -110 -3 0 -11 -6 -18 -13 -8 -6 -24 -19 -36 -27
-12 -8 -37 -26 -55 -40 -18 -14 -44 -33 -57 -42 -12 -9 -50 -36 -83 -60 -33
-24 -77 -54 -97 -68 -21 -14 -38 -28 -38 -32 0 -5 -6 -8 -13 -8 -8 0 -22 -9
-32 -20 -10 -11 -24 -20 -32 -20 -8 0 -11 -4 -8 -10 3 -5 1 -10 -5 -10 -6 0
-38 -20 -70 -45 -32 -25 -61 -45 -64 -45 -3 0 -14 -7 -23 -14 -10 -8 -29 -24
-43 -35 l-25 -20 1559 -1 c1384 0 1557 2 1546 15 -7 8 -19 15 -26 15 -8 0 -14
4 -14 10 0 5 -12 16 -27 24 -16 8 -37 23 -48 33 -11 10 -39 31 -63 46 -23 15
-50 34 -60 42 -9 8 -64 48 -122 89 -58 42 -114 83 -125 91 -11 9 -32 24 -47
33 -16 9 -28 20 -28 24 0 4 -5 8 -10 8 -6 0 -16 5 -23 10 -14 13 -146 109
-177 130 -12 8 -37 26 -56 40 -18 14 -56 41 -84 60 -28 19 -57 40 -63 45 -7 6
-52 40 -102 75 -49 35 -93 69 -97 75 -4 5 -8 7 -8 3 0 -5 -8 -1 -17 8 -36 31
-152 114 -162 114 -5 0 -11 3 -13 8 -3 6 -73 60 -143 109 l-30 21 -45 -31z"/>
</g>
</svg>
